<svg width="206" height="172" viewBox="0 0 206 172" fill="none" xmlns="http://www.w3.org/2000/svg">
<circle cx="103" cy="50" r="50" fill="#F5F5F5"/>
<path fill-rule="evenodd" clip-rule="evenodd" d="M103 25.2502C89.331 25.2502 78.2501 36.3312 78.2501 50.0002C78.2501 63.6693 89.331 74.7502 103 74.7502C116.669 74.7502 127.75 63.6693 127.75 50.0002C127.75 36.3312 116.669 25.2502 103 25.2502ZM82.7501 50.0002C82.7501 38.8165 91.8163 29.7502 103 29.7502C107.781 29.7502 112.176 31.4073 115.64 34.1785L87.1783 62.64C84.4072 59.1758 82.7501 54.7815 82.7501 50.0002ZM90.3603 65.822C93.8245 68.5932 98.2188 70.2502 103 70.2502C114.184 70.2502 123.25 61.184 123.25 50.0002C123.25 45.219 121.593 40.8247 118.822 37.3605L90.3603 65.822Z" fill="#BEBEBE"/>
<path d="M9.78125 167H2.09375V144.375H9.90625C16.6562 144.375 20.7344 148.609 20.75 155.656C20.7344 162.734 16.6562 167 9.78125 167ZM6.15625 163.469H9.5625C14.2969 163.484 16.6875 160.875 16.6875 155.656C16.6875 150.469 14.2969 147.891 9.6875 147.906H6.15625V163.469ZM24.1562 167V150.031H28.1562V167H24.1562ZM23.875 145.438C23.875 144.25 24.9219 143.281 26.1875 143.281C27.4531 143.281 28.5 144.25 28.5 145.438C28.5 146.641 27.4531 147.609 26.1875 147.625C24.9219 147.609 23.875 146.641 23.875 145.438ZM41.5938 154.875C41.3438 153.594 40.2812 152.766 38.5938 152.781C36.8906 152.766 35.6406 153.625 35.6562 154.781C35.6406 155.656 36.3438 156.312 38.0625 156.719L40.9375 157.312C44.1406 158.016 45.7031 159.5 45.7188 161.938C45.7031 165.125 42.9062 167.344 38.4688 167.344C34.1562 167.344 31.6094 165.406 31.1875 162.156H35.25C35.4844 163.609 36.6094 164.328 38.4688 164.312C40.3906 164.328 41.6406 163.547 41.6562 162.281C41.6406 161.297 40.875 160.672 39.1875 160.312L36.4688 159.719C33.3125 159.078 31.6719 157.422 31.6875 155C31.6719 151.859 34.3906 149.812 38.5312 149.812C42.5781 149.812 45.0781 151.797 45.375 154.875H41.5938ZM56.1562 167.344C51.0938 167.344 48.0312 163.719 48.0312 158.594C48.0312 153.391 51.1875 149.812 56.1562 149.812C60.2656 149.812 63.1562 152.219 63.4375 155.875H59.625C59.3125 154.25 58.125 153.016 56.1875 153C53.7188 153.016 52.0625 155.078 52.0625 158.5C52.0625 162 53.6875 164.078 56.1875 164.094C57.9531 164.078 59.2656 163.047 59.625 161.219H63.4375C63.1406 164.797 60.4219 167.344 56.1562 167.344ZM73.8438 167.344C68.8906 167.344 65.7188 163.828 65.7188 158.594C65.7188 153.312 68.8906 149.812 73.8438 149.812C78.8125 149.812 81.9844 153.312 81.9688 158.594C81.9844 163.828 78.8125 167.344 73.8438 167.344ZM69.75 158.562C69.75 161.672 71.1094 164.156 73.875 164.156C76.5938 164.156 77.9531 161.672 77.9375 158.562C77.9531 155.453 76.5938 152.953 73.875 152.969C71.1094 152.953 69.75 155.453 69.75 158.562ZM89.0625 157.062V167H85.0625V150.031H88.875V152.906H89.0938C89.8594 151.016 91.5938 149.812 94.125 149.812C97.6406 149.812 99.9531 152.125 99.9375 156.188V167H95.9688V156.812C95.9688 154.531 94.7344 153.172 92.6562 153.188C90.5469 153.172 89.0625 154.594 89.0625 157.062ZM107.75 157.062V167H103.75V150.031H107.562V152.906H107.781C108.547 151.016 110.281 149.812 112.812 149.812C116.328 149.812 118.641 152.125 118.625 156.188V167H114.656V156.812C114.656 154.531 113.422 153.172 111.344 153.188C109.234 153.172 107.75 154.594 107.75 157.062ZM129.969 167.344C124.859 167.344 121.719 163.938 121.719 158.625C121.719 153.375 124.906 149.812 129.75 149.812C133.906 149.812 137.5 152.422 137.5 158.375V159.625H125.656C125.719 162.516 127.422 164.234 130 164.219C131.75 164.234 132.922 163.484 133.438 162.469H137.344C136.625 165.406 133.906 167.344 129.969 167.344ZM125.672 156.906H133.688C133.672 154.594 132.109 152.906 129.812 152.906C127.422 152.906 125.812 154.75 125.672 156.906ZM148 167.344C142.938 167.344 139.875 163.719 139.875 158.594C139.875 153.391 143.031 149.812 148 149.812C152.109 149.812 155 152.219 155.281 155.875H151.469C151.156 154.25 149.969 153.016 148.031 153C145.562 153.016 143.906 155.078 143.906 158.5C143.906 162 145.531 164.078 148.031 164.094C149.797 164.078 151.109 163.047 151.469 161.219H155.281C154.984 164.797 152.266 167.344 148 167.344ZM166.75 150.031V153.094H163.406V161.906C163.406 163.531 164.219 163.859 165.219 163.875C165.688 163.891 166.469 163.844 166.969 163.812V167.062C166.5 167.141 165.734 167.234 164.719 167.219C161.719 167.234 159.406 165.75 159.438 162.562V153.094H157V150.031H159.438V145.969H163.406V150.031H166.75ZM177.156 167.344C172.047 167.344 168.906 163.938 168.906 158.625C168.906 153.375 172.094 149.812 176.938 149.812C181.094 149.812 184.688 152.422 184.688 158.375V159.625H172.844C172.906 162.516 174.609 164.234 177.188 164.219C178.938 164.234 180.109 163.484 180.625 162.469H184.531C183.812 165.406 181.094 167.344 177.156 167.344ZM172.859 156.906H180.875C180.859 154.594 179.297 152.906 177 152.906C174.609 152.906 173 154.75 172.859 156.906ZM194.094 167.312C190.109 167.297 187.094 164.109 187.094 158.531C187.094 152.875 190.188 149.812 194.125 149.812C197.109 149.812 198.359 151.609 198.969 152.812H199.125V144.375H203.094V167H199.188V164.312H198.969C198.328 165.562 197.031 167.297 194.094 167.312ZM191.156 158.5C191.156 161.703 192.562 164.031 195.188 164.031C197.766 164.031 199.219 161.812 199.219 158.5C199.219 155.203 197.781 153.078 195.188 153.062C192.531 153.078 191.156 155.344 191.156 158.5Z" fill="#616161"/>
</svg>
